<?xml version="1.0" encoding="utf-8"?>
<!-- Generator: Adobe Illustrator 16.0.2, SVG Export Plug-In . SVG Version: 6.00 Build 0)  -->
<!DOCTYPE svg PUBLIC "-//W3C//DTD SVG 1.1//EN" "http://www.w3.org/Graphics/SVG/1.1/DTD/svg11.dtd">
<svg version="1.1" id="Layer_1" xmlns="http://www.w3.org/2000/svg" xmlns:xlink="http://www.w3.org/1999/xlink" x="0px" y="0px"
	 width="64px" height="64px" viewBox="0 0 219.696 219.691" enable-background="new 0 0 219.696 219.691"
	 xml:space="preserve">
<g>
	<circle fill="#42C29E" cx="109.848" cy="109.845" r="109.849"/>
	<path fill-rule="evenodd" clip-rule="evenodd" fill="#FFFFFF" d="M120.03,167.181c-15.072,0-30.152,0.03-45.229-0.011
		c-8.789-0.022-15.637-6.737-15.684-15.566c-0.084-15.485-0.08-30.974,0.055-46.461c0.07-8.509,7.008-15.378,15.535-15.404
		c30.289-0.094,60.578-0.117,90.871-0.083c8.756,0.01,15.492,6.553,15.574,15.205c0.152,15.621,0.172,31.248,0.076,46.871
		c-0.063,9.284-6.578,15.495-15.971,15.516c-15.076,0.03-30.15,0.007-45.229,0.007C120.03,167.232,120.03,167.208,120.03,167.181z
		 M120.343,116.135c0-0.014,0-0.03,0-0.048c-16.852,0-33.703,0.094-50.555-0.072c-3.631-0.038-5.045,0.785-4.924,4.726
		c0.293,9.444,0.084,18.902,0.119,28.357c0.031,7.944,4.234,12.158,12.068,12.155c28.496-0.007,56.996-0.02,85.494-0.036
		c8.537-0.004,12.885-4.121,13.016-12.665c0.145-9.314-0.074-18.635,0.141-27.946c0.084-3.688-1.295-4.578-4.805-4.545
		C154.048,116.228,137.192,116.135,120.343,116.135z M75.61,95.483c-3.994-0.01-7.783,0.882-9.387,4.551
		c-1.164,2.669-1.035,6.107-0.637,9.091c0.086,0.628,3.854,1.066,5.926,1.078c16.172,0.085,32.346,0.047,48.518,0.047
		c0-0.019,0-0.037,0-0.056c4.664,0,9.322,0.004,13.98,0c12.475-0.01,24.947,0.034,37.418-0.115c1.355-0.017,3.664-0.91,3.889-1.804
		c1.684-6.775-0.945-12.76-10.502-12.834"/>
	<path fill-rule="evenodd" clip-rule="evenodd" fill="#FFFFFF" d="M163.653,84.303c-5.541,1.091-5.803,0.9-6.73-3.961
		c-0.813-4.289-1.652-8.575-2.547-12.849c-1.539-7.368-6.27-10.545-13.746-9.005c-28.895,5.954-57.783,11.951-86.658,18.008
		c-8.033,1.683-10.99,6.22-9.324,14.346c2.984,14.586,6.217,29.124,9.166,43.717c0.633,3.119,0.502,6.39,0.723,9.592
		c-0.543,0.204-1.086,0.408-1.629,0.616c-1.49-2.701-3.691-5.237-4.348-8.127c-3.506-15.452-6.838-30.95-9.803-46.517
		c-1.855-9.763,3.855-17.194,13.957-19.27c20.207-4.15,40.416-8.296,60.617-12.473c8.561-1.769,17.1-3.638,25.656-5.417
		c10.863-2.257,18.652,2.668,21.102,13.483C161.407,72.276,162.44,78.169,163.653,84.303z"/>
</g>
</svg>
