<?xml version="1.0" encoding="utf-8"?>
<!-- Generator: Adobe Illustrator 16.0.2, SVG Export Plug-In . SVG Version: 6.00 Build 0)  -->
<!DOCTYPE svg PUBLIC "-//W3C//DTD SVG 1.1//EN" "http://www.w3.org/Graphics/SVG/1.1/DTD/svg11.dtd">
<svg version="1.1" id="Layer_1" xmlns="http://www.w3.org/2000/svg" xmlns:xlink="http://www.w3.org/1999/xlink" x="0px" y="0px"
	 width="64px" height="64px" viewBox="0 0 219.697 219.691" enable-background="new 0 0 219.697 219.691"
	 xml:space="preserve">
<g>
	<circle fill="#42C29E" cx="109.848" cy="109.843" r="109.848"/>
	<g>
		<path fill-rule="evenodd" clip-rule="evenodd" fill="#FFFFFF" d="M109.967,54.78c0.255,0.16,0.5,0.339,0.766,0.478
			c25.642,13.416,51.284,26.829,76.927,40.243c0.231,0.121,0.456,0.252,0.773,0.429c-1.026,0.543-1.978,1.05-2.932,1.554
			c-24.4,12.875-48.8,25.75-73.2,38.625c-0.652,0.344-1.316,0.666-1.951,1.039c-0.361,0.212-0.645,0.194-1.012-0.001
			c-5.134-2.724-10.277-5.433-15.418-8.146c-17.323-9.139-34.646-18.279-51.969-27.418c-3.367-1.776-6.733-3.555-10.098-5.334
			c-0.175-0.093-0.344-0.199-0.589-0.342c1.864-0.979,3.652-1.919,5.442-2.856c24.174-12.645,48.348-25.289,72.521-37.937
			c0.175-0.092,0.33-0.222,0.495-0.334C109.803,54.78,109.885,54.78,109.967,54.78z"/>
		<path fill-rule="evenodd" clip-rule="evenodd" fill="#FFFFFF" d="M106.28,164.906c-1.407-0.083-2.813-0.16-4.22-0.251
			c-8.134-0.525-16.166-1.628-23.912-4.298c-3.657-1.261-7.147-2.863-10.108-5.425c-1.9-1.643-3.352-3.591-3.838-6.124
			c-0.111-0.579-0.166-1.178-0.165-1.769c0.012-9.993,0.037-19.987,0.06-29.98c0-0.163,0.014-0.325,0.026-0.588
			c0.255,0.126,0.466,0.223,0.67,0.331c12.958,6.837,25.917,13.676,38.875,20.514c1.882,0.992,3.769,1.977,5.64,2.991
			c0.385,0.208,0.677,0.208,1.065,0.002c11.957-6.324,23.921-12.636,35.884-18.948c2.877-1.519,5.755-3.037,8.633-4.555
			c0.193-0.102,0.393-0.193,0.675-0.33c0,0.337,0,0.596,0,0.853c0.03,9.666,0.017,19.332,0.114,28.997
			c0.032,3.15-1.099,5.691-3.314,7.827c-2.383,2.297-5.247,3.825-8.266,5.087c-4.784,2-9.793,3.195-14.887,4.064
			c-5.112,0.873-10.265,1.361-15.449,1.511c-0.201,0.006-0.401,0.059-0.602,0.09C110.868,164.906,108.575,164.906,106.28,164.906z"
			/>
		<path fill-rule="evenodd" clip-rule="evenodd" fill="#FFFFFF" d="M42.398,142.462c0-12.838,0-25.676,0-38.58
			c0.203,0.09,0.369,0.152,0.525,0.235c1.901,1.001,3.794,2.019,5.707,2.998c0.425,0.217,0.571,0.463,0.569,0.942
			c-0.016,7.989-0.011,15.977-0.011,23.965c0,3.277,0,6.554,0,9.832c0,0.203,0,0.406,0,0.609c-0.037,0.013-0.075,0.027-0.112,0.041
			c-1.078-2.148-2.157-4.296-3.294-6.563c-1.133,2.258-2.208,4.403-3.284,6.548C42.465,142.48,42.431,142.471,42.398,142.462z"/>
	</g>
</g>
</svg>
