<?xml version="1.0" encoding="utf-8"?>
<!-- Generator: Adobe Illustrator 16.0.2, SVG Export Plug-In . SVG Version: 6.00 Build 0)  -->
<!DOCTYPE svg PUBLIC "-//W3C//DTD SVG 1.1//EN" "http://www.w3.org/Graphics/SVG/1.1/DTD/svg11.dtd">
<svg version="1.1" id="Layer_1" xmlns="http://www.w3.org/2000/svg" xmlns:xlink="http://www.w3.org/1999/xlink" x="0px" y="0px"
	 width="40px" height="40px" viewBox="0 0 219.696 219.691" enable-background="new 0 0 219.696 219.691"
	 xml:space="preserve">
<g>
	<circle fill="#42C29E" cx="109.848" cy="109.845" r="109.848"/>
	<g>
		<path fill-rule="evenodd" clip-rule="evenodd" fill="#FEFEFE" d="M108.59,44.926c22.752,0.558,40.456,15.6,43.84,37.514
			c2.192,14.185-2.21,26.527-12.303,36.779c-12.755,12.956-20.356,28.693-24.915,46.077c-0.546,2.08-1.082,4.171-1.501,6.282
			c-0.355,1.779-0.959,3.242-3.085,3.219c-1.986-0.018-2.605-1.416-2.979-3.082c-2.22-9.902-5.509-19.437-10.011-28.53
			c-4.679-9.453-10.933-17.776-18.189-25.423c-11.478-12.095-15.51-26.426-10.806-42.449c4.815-16.405,16.293-26.141,32.975-29.684
			C104.034,45.116,106.529,44.783,108.59,44.926z"/>
		<path fill-rule="evenodd" clip-rule="evenodd" fill="#42C29E" d="M111.067,112.154c-12.845-0.011-23.812-10.995-23.638-23.677
			c0.178-13.029,10.797-23.337,23.824-23.435c11.442-0.085,23.299,8.824,23.532,23.632
			C134.99,101.554,124.041,112.167,111.067,112.154z"/>
	</g>
</g>
</svg>
