<?xml version="1.0" encoding="utf-8"?>
<!-- Generator: Adobe Illustrator 16.0.2, SVG Export Plug-In . SVG Version: 6.00 Build 0)  -->
<!DOCTYPE svg PUBLIC "-//W3C//DTD SVG 1.1//EN" "http://www.w3.org/Graphics/SVG/1.1/DTD/svg11.dtd">
<svg version="1.1" id="Layer_1" xmlns="http://www.w3.org/2000/svg" xmlns:xlink="http://www.w3.org/1999/xlink" x="0px" y="0px"
	 width="64px" height="64px" viewBox="0 0 219.697 219.691" enable-background="new 0 0 219.697 219.691"
	 xml:space="preserve">
<g>
	<circle fill="#42C29E" cx="109.848" cy="109.846" r="109.849"/>
	<path fill-rule="evenodd" clip-rule="evenodd" fill="#FFFFFF" d="M124.952,97.53c2.014,1.24,3.957,2.437,5.899,3.634
		c8.296,5.111,16.596,10.219,24.884,15.346c0.451,0.278,0.742,0.267,1.174-0.042c2.759-1.97,5.541-3.909,8.319-5.854
		c2.049-1.435,4.268-2.367,6.829-2.316c2.667,0.054,4.823,1.173,6.521,3.169c0.924,1.088,0.786,2.454,0.548,3.723
		c-0.169,0.904-0.507,1.829-0.981,2.615c-6.34,10.524-12.718,21.025-19.087,31.532c-0.585,0.966-1.141,1.951-1.767,2.89
		c-1.249,1.873-2.486,2.246-4.527,1.338c-1.566-0.696-3.139-1.399-4.632-2.235c-1.987-1.114-2.939-2.909-2.76-5.18
		c0.282-3.566,0.659-7.126,1-10.688c0.068-0.727,0.111-1.46,0.246-2.175c0.097-0.509-0.033-0.738-0.507-0.963
		c-3.064-1.444-6.11-2.926-9.162-4.396c-7.354-3.543-14.707-7.085-22.061-10.628c-0.211-0.101-0.425-0.195-0.812-0.374
		c-0.96,1.391-2.021,2.742-2.883,4.21c-2.073,3.526-3.139,7.432-4.082,11.378c-2.667,11.164-5.343,22.325-8.044,33.479
		c-0.281,1.16-0.688,2.298-1.136,3.406c-0.843,2.081-2.341,2.944-4.551,2.518c-3.166-0.611-6.136-1.805-8.91-3.437
		c-1.9-1.116-2.722-2.95-2.908-5.067c-0.151-1.687-0.256-3.383-0.269-5.077c-0.127-18.046-0.224-36.092-0.356-54.137
		c-0.009-1.239-0.138-2.495-0.366-3.713c-0.43-2.282-1.846-3.913-3.841-4.972c-4.197-2.229-8.492-4.272-12.647-6.574
		c-4.547-2.518-9.061-5.115-13.442-7.91c-3.795-2.42-6.825-5.698-9.1-9.613c-0.984-1.694-1.438-3.537-0.945-5.497
		c0.62-2.469,2.866-4.255,5.63-4.526c3.015-0.294,5.959,0.233,8.9,0.779c3.905,0.727,7.522,2.26,10.985,4.137
		c7.281,3.944,14.523,7.963,21.782,11.95c0.309,0.17,0.617,0.341,0.928,0.508c1.815,0.977,3.651,1.021,5.469,0.044
		c4.228-2.273,8.442-4.572,12.66-6.861c13.465-7.303,26.932-14.604,40.396-21.908c2.167-1.176,4.418-2.117,6.903-2.332
		c3.704-0.32,6.752,1.118,9.386,3.603c0.547,0.516,1.059,1.073,1.559,1.637c1.985,2.236,1.995,4.304-0.149,6.4
		c-1.867,1.826-3.87,3.514-5.831,5.242c-8.056,7.104-16.121,14.201-24.182,21.302c-2.755,2.427-5.017,5.295-7.287,8.156
		C126.839,95.192,125.92,96.325,124.952,97.53z"/>
</g>
</svg>
