<?xml version="1.0" encoding="utf-8"?>
<!-- Generator: Adobe Illustrator 16.0.2, SVG Export Plug-In . SVG Version: 6.00 Build 0)  -->
<!DOCTYPE svg PUBLIC "-//W3C//DTD SVG 1.1//EN" "http://www.w3.org/Graphics/SVG/1.1/DTD/svg11.dtd">
<svg version="1.1" id="Layer_1" xmlns="http://www.w3.org/2000/svg" xmlns:xlink="http://www.w3.org/1999/xlink" x="0px" y="0px"
	 width="64px" height="64px" viewBox="0 0 219.696 219.691" enable-background="new 0 0 219.696 219.691"
	 xml:space="preserve">
<g>
	<circle fill="#42C29E" cx="109.849" cy="109.846" r="109.849"/>
	<g>
		<path fill="#FFFFFF" d="M126.539,138.658c0-4.461-1.238-8.012-3.713-10.651c-2.477-2.639-6.682-5.073-12.611-7.306
			c-5.932-2.229-11.047-4.447-15.344-6.651c-4.301-2.204-7.986-4.734-11.061-7.591c-3.074-2.857-5.469-6.216-7.184-10.08
			c-1.713-3.864-2.57-8.461-2.57-13.795c0-9.194,2.938-16.732,8.814-22.608c5.877-5.878,13.686-9.306,23.426-10.285V32.223h13.061
			v17.712c9.631,1.36,17.166,5.374,22.609,12.039c5.439,6.666,8.162,15.305,8.162,25.915h-23.59c0-6.529-1.346-11.413-4.039-14.651
			c-2.693-3.237-6.299-4.856-10.816-4.856c-4.461,0-7.916,1.266-10.365,3.796s-3.674,6.027-3.674,10.488
			c0,4.136,1.197,7.456,3.592,9.958c2.395,2.503,6.844,5.061,13.346,7.673c6.502,2.611,11.848,5.074,16.039,7.386
			c4.189,2.314,7.725,4.926,10.611,7.836c2.883,2.912,5.086,6.231,6.611,9.958c1.521,3.728,2.285,8.067,2.285,13.019
			c0,9.251-2.885,16.761-8.652,22.528c-5.77,5.769-13.713,9.168-23.834,10.202v16.243h-12.979v-16.162
			c-11.154-1.196-19.793-5.154-25.914-11.875s-9.184-15.657-9.184-26.813h23.59c0,6.477,1.537,11.441,4.611,14.896
			c3.074,3.457,7.496,5.184,13.264,5.184c4.787,0,8.57-1.266,11.346-3.795C125.152,146.371,126.539,142.957,126.539,138.658z"/>
	</g>
</g>
</svg>
