<?xml version="1.0" encoding="utf-8"?>
<!-- Generator: Adobe Illustrator 16.0.2, SVG Export Plug-In . SVG Version: 6.00 Build 0)  -->
<!DOCTYPE svg PUBLIC "-//W3C//DTD SVG 1.1//EN" "http://www.w3.org/Graphics/SVG/1.1/DTD/svg11.dtd">
<svg version="1.1" id="Layer_1" xmlns="http://www.w3.org/2000/svg" xmlns:xlink="http://www.w3.org/1999/xlink" x="0px" y="0px"
	 width="64px" height="64px" viewBox="0 0 219.697 219.691" enable-background="new 0 0 219.697 219.691"
	 xml:space="preserve">
<g>
	<circle fill="#42C29E" cx="109.849" cy="109.846" r="109.848"/>
	<path fill-rule="evenodd" clip-rule="evenodd" fill="#FFFFFF" d="M178.016,71.264c-0.693,0.145-1.384,0.297-2.076,0.434
		c-3.748,0.734-7.497,0.749-11.248,0.024c-0.222-0.042-0.358,0-0.48,0.175c-0.089,0.126-0.197,0.238-0.287,0.361
		c-0.465,0.63-1.1,0.905-1.867,0.924c-1.174,0.029-2.308-0.211-3.424-0.529c-1.283-0.364-2.551-0.783-3.83-1.166
		c-0.121-0.036-0.319-0.027-0.401,0.048c-0.917,0.848-2.024,1.026-3.182,0.81c-1.087-0.204-2.163-0.502-3.221-0.833
		c-0.877-0.273-1.72-0.224-2.582-0.008c-0.586,0.147-1.174,0.28-1.765,0.391c-0.869,0.162-1.731,0.027-2.566-0.184
		c-1.219-0.31-2.427-0.319-3.649-0.074c-1.645,0.33-3.245,0.156-4.813-0.416c-0.121-0.044-0.253-0.068-0.368-0.124
		c-1.119-0.537-2.266-0.539-3.45-0.244c-1.631,0.406-3.189,0.154-4.676-0.611c-0.306-0.157-0.633-0.275-0.92-0.459
		c-0.727-0.463-1.501-0.502-2.315-0.335c-0.382,0.077-0.769,0.137-1.155,0.184c-1.211,0.146-2.29-0.279-3.314-0.84
		c-1.139-0.627-2.243-1.315-3.362-1.979c-0.171-0.101-0.335-0.212-0.554-0.35c-0.166,12.024-0.331,23.988-0.498,36.026
		c0.376-0.14,0.672-0.25,0.968-0.359c3.693-1.372,7.5-2.37,11.301-3.386c2.967-0.794,5.924-1.625,8.871-2.488
		c1.328-0.391,2.606-0.938,3.772-1.706c1.8-1.186,2.342-2.364,1.458-4.623c-0.861-2.199-2.625-3.485-4.871-4.007
		c-1.138-0.264-2.348-0.228-3.525-0.314c-1.957-0.141-3.918-0.235-5.872-0.415c-2.083-0.191-3.853-1.141-5.448-2.45
		c-0.658-0.54-1.313-1.086-1.951-1.649c-0.608-0.536-0.55-0.971,0.183-1.326c0.938-0.454,1.961-0.609,2.978-0.761
		c1.134-0.169,2.272-0.307,3.411-0.442c1.257-0.15,2.398-0.636,3.49-1.228c1.198-0.648,2.349-0.599,3.504,0.064
		c0.287,0.165,0.583,0.319,0.85,0.514c1.309,0.965,2.724,1.74,4.176,2.469c2.224,1.117,4.26,2.512,5.946,4.369
		c1.302,1.434,2.279,3.048,2.673,4.967c0.538,2.626-0.083,5.019-1.516,7.233c-1.348,2.082-3.25,3.487-5.466,4.542
		c-3.189,1.518-6.543,2.534-9.964,3.357c-3.192,0.768-6.392,1.512-9.587,2.268c-0.134,0.031-0.267,0.077-0.458,0.13
		c0.433,0.37,0.827,0.697,1.213,1.036c1.813,1.596,3.427,3.363,4.674,5.446c1.334,2.225,1.979,4.671,2.307,7.216
		c0.225,1.73,0.173,3.448-0.306,5.137c-0.645,2.274-2.005,4.078-3.742,5.625c-1.546,1.375-3.272,2.492-5.052,3.532
		c-0.18,0.105-0.36,0.211-0.574,0.336c0.649,0.472,1.267,0.904,1.866,1.359c1.915,1.453,3.671,3.065,4.98,5.107
		c1.235,1.925,1.898,4.042,2.029,6.316c0.156,2.726-0.913,5.002-2.674,7.005c-1.504,1.709-3.287,3.096-5.123,4.42
		c-1.333,0.961-2.684,1.898-4.028,2.846c-0.144,0.102-0.287,0.204-0.446,0.317c0.475,0.6,0.945,1.173,1.393,1.765
		c1.318,1.748,2.475,3.59,3.089,5.711c0.242,0.838,0.401,1.705,0.522,2.57c0.127,0.91-0.243,1.733-0.579,2.549
		c-0.033,0.003-0.067,0.005-0.101,0.008c-0.145-0.634-0.292-1.267-0.431-1.903c-0.132-0.601-0.235-1.208-0.39-1.802
		c-0.271-1.046-0.763-1.996-1.444-2.823c-0.923-1.119-1.901-2.191-2.856-3.283c-0.053,0.023-0.105,0.046-0.158,0.068
		c-0.045,3.833-0.091,7.667-0.137,11.52c-0.748,0-1.475,0-2.229,0c-0.049-3.843-0.097-7.669-0.146-11.497
		c-0.085,0-0.115-0.009-0.126,0.002c-1.174,1.105-2.279,2.269-3.196,3.604c-0.932,1.353-1.308,2.894-1.587,4.475
		c-0.101,0.566-0.237,1.126-0.359,1.688c-0.039,0.007-0.078,0.013-0.117,0.02c-0.136-0.369-0.303-0.729-0.401-1.108
		c-0.325-1.256-0.151-2.493,0.217-3.709c0.656-2.169,1.822-4.073,3.119-5.904c0.456-0.646,0.941-1.274,1.439-1.944
		c-0.093-0.072-0.188-0.149-0.287-0.223c-2.194-1.628-4.411-3.227-6.576-4.894c-1.455-1.122-2.755-2.421-3.802-3.949
		c-1.743-2.547-1.996-5.292-1.146-8.208c0.874-2.999,2.595-5.423,4.973-7.396c1.026-0.853,2.125-1.621,3.19-2.426
		c0.101-0.077,0.206-0.15,0.338-0.246c-0.708-0.433-1.395-0.845-2.072-1.272c-1.757-1.106-3.424-2.324-4.834-3.867
		c-1.889-2.066-2.845-4.488-2.862-7.289c-0.036-5.471,1.92-10.086,5.911-13.832c0.381-0.355,0.773-0.698,1.166-1.041
		c0.383-0.333,0.771-0.659,1.209-1.029c-0.212-0.064-0.382-0.123-0.554-0.165c-3.422-0.825-6.848-1.633-10.267-2.476
		c-3.184-0.785-6.335-1.68-9.281-3.163c-1.759-0.887-3.345-2.003-4.646-3.501c-2.72-3.128-3.675-8.637-0.039-12.812
		c1.734-1.99,3.822-3.493,6.152-4.668c1.839-0.928,3.67-1.858,5.348-3.063c0.248-0.178,0.531-0.31,0.81-0.44
		c0.573-0.272,1.139-0.277,1.739-0.011c1.797,0.796,3.63,1.49,5.589,1.773c0.959,0.138,1.942,0.17,2.876,0.404
		c0.871,0.221,1.7,0.628,2.533,0.986c0.345,0.149,0.403,0.52,0.13,0.756c-1.685,1.448-3.328,2.963-5.476,3.734
		c-1.779,0.639-3.633,0.831-5.507,0.899c-1.654,0.06-3.313,0.098-4.963,0.222c-2.468,0.185-4.302,1.451-5.604,3.514
		c-0.455,0.723-0.661,1.533-0.696,2.393c-0.04,0.948,0.311,1.697,1.028,2.305c0.868,0.737,1.866,1.246,2.909,1.675
		c2.521,1.039,5.159,1.708,7.79,2.394c4.388,1.147,8.801,2.208,13.078,3.741c0.622,0.223,1.238,0.458,1.959,0.725
		c-0.17-12.016-0.341-23.978-0.512-36.028c-0.349,0.223-0.621,0.4-0.897,0.574c-1.331,0.838-2.669,1.662-4.141,2.246
		c-0.954,0.379-1.92,0.477-2.92,0.238c-0.184-0.043-0.371-0.068-0.557-0.108c-0.731-0.152-1.416-0.062-2.084,0.307
		c-0.557,0.308-1.152,0.545-1.735,0.806c-1.364,0.609-2.771,0.628-4.201,0.281c-0.286-0.07-0.58-0.115-0.869-0.175
		c-0.399-0.083-0.786-0.083-1.181,0.06c-0.633,0.23-1.28,0.418-1.914,0.642c-1.408,0.497-2.849,0.563-4.304,0.302
		c-1.272-0.229-2.527-0.268-3.79,0.075c-1.338,0.363-2.678,0.291-3.987-0.13c-1.124-0.362-2.207-0.32-3.335,0.039
		c-1.063,0.338-2.167,0.583-3.271,0.753c-1.022,0.158-1.965-0.152-2.756-0.861c-0.088-0.078-0.303-0.061-0.441-0.023
		c-1.708,0.466-3.406,0.979-5.126,1.402c-0.737,0.182-1.518,0.216-2.281,0.26c-0.604,0.034-1.125-0.214-1.447-0.742
		c-0.369-0.603-0.791-0.778-1.54-0.634c-2.484,0.476-5.002,0.596-7.526,0.38c-1.643-0.141-3.254-0.448-4.819-0.974
		c-0.12-0.04-0.25-0.051-0.376-0.075c0-0.166,0-0.331,0-0.497c1.547-0.465,3.145-0.646,4.738-0.853
		c1.488-0.193,2.98-0.361,4.46-0.612c2.157-0.365,4.188-1.16,6.206-1.972c4.622-1.861,8.93-4.328,13.177-6.907
		c3.183-1.935,6.349-3.896,9.555-5.79c1.967-1.162,4.021-2.159,6.259-2.721c0.613-0.153,1.21-0.138,1.763,0.148
		c0.47,0.243,0.912,0.545,1.339,0.858c0.627,0.463,1.201,1.003,1.847,1.435c4.823,3.216,10.151,5.17,15.808,6.293
		c0.074,0.014,0.15,0.012,0.251,0.021c0-0.632,0.014-1.235-0.003-1.837c-0.038-1.251-0.086-2.503-0.152-3.754
		c-0.009-0.164-0.124-0.354-0.246-0.477c-0.438-0.447-0.908-0.863-1.354-1.303c-1.093-1.078-1.745-2.359-1.864-3.913
		c-0.206-2.685,1.301-5.178,3.896-6.292c0.632-0.271,1.327-0.395,1.992-0.587c0.427,0,0.853,0,1.278,0
		c0.055,0.02,0.108,0.05,0.164,0.058c4.11,0.644,6.552,5.005,4.945,8.82c-0.525,1.246-1.489,2.117-2.485,2.959
		c-0.34,0.288-0.558,0.613-0.564,1.053c-0.024,1.739-0.04,3.478-0.057,5.216c0,0.019,0.021,0.039,0.039,0.071
		c0.088-0.013,0.181-0.025,0.271-0.044c2.228-0.454,4.424-1.029,6.573-1.771c4.308-1.488,8.289-3.565,11.786-6.519
		c0.365-0.309,0.795-0.455,1.27-0.485c0.894-0.059,1.738,0.163,2.565,0.461c1.835,0.66,3.545,1.578,5.211,2.575
		c3.813,2.286,7.598,4.623,11.418,6.897c3.661,2.18,7.42,4.167,11.385,5.749c2.926,1.166,5.925,2.011,9.086,2.249
		c1.958,0.146,3.905,0.404,5.779,1.042C178.016,70.885,178.016,71.074,178.016,71.264z M111.885,110.68
		c-0.109,6.985-0.219,13.896-0.328,20.877c0.757-0.439,1.45-0.838,2.141-1.246c1.397-0.825,2.758-1.706,3.879-2.899
		c0.838-0.893,1.524-1.896,1.767-3.107c0.307-1.527,0.225-3.065-0.168-4.573c-1.032-3.975-3.454-6.872-6.972-8.907
		C112.125,110.779,112.037,110.749,111.885,110.68z M107.815,110.72c-0.151,0.068-0.25,0.103-0.338,0.153
		c-4.166,2.402-6.758,5.88-7.239,10.747c-0.147,1.489-0.101,3.008,0.786,4.311c0.509,0.746,1.094,1.458,1.741,2.087
		c1.274,1.237,2.833,2.081,4.365,2.952c0.313,0.18,0.63,0.354,1.005,0.565C108.029,124.563,107.921,117.667,107.815,110.72z
		 M108.105,139.332c-2.194,1.354-4.354,2.613-6.054,4.494c-1.012,1.123-1.763,2.398-2.113,3.883
		c-0.393,1.661-0.166,3.15,1.014,4.496c2.246,2.565,4.764,4.833,7.386,6.998c0.037,0.031,0.093,0.04,0.174,0.072
		C108.324,152.629,108.456,146.015,108.105,139.332z M111.183,159.374c0.13-0.102,0.179-0.133,0.221-0.172
		c1.238-1.101,2.5-2.176,3.706-3.31c1.171-1.102,2.323-2.228,3.41-3.411c0.934-1.018,1.533-2.217,1.418-3.667
		c-0.141-1.789-0.893-3.313-2.031-4.667c-1.274-1.516-2.867-2.638-4.526-3.677c-0.596-0.374-1.198-0.739-1.889-1.165
		C111.388,146.028,111.287,152.657,111.183,159.374z M127.789,81.569c0.846-0.004,1.445-0.617,1.439-1.47
		c-0.007-0.832-0.609-1.436-1.435-1.442c-0.838-0.007-1.46,0.612-1.461,1.454C126.331,80.958,126.945,81.572,127.789,81.569z
		 M89.532,80.102c-0.006,0.853,0.592,1.454,1.447,1.454c0.852,0.002,1.468-0.606,1.466-1.445c-0.004-0.823-0.602-1.422-1.438-1.438
		C90.158,78.655,89.538,79.255,89.532,80.102z"/>
</g>
</svg>
