<?xml version="1.0" encoding="utf-8"?>
<!-- Generator: Adobe Illustrator 16.0.2, SVG Export Plug-In . SVG Version: 6.00 Build 0)  -->
<!DOCTYPE svg PUBLIC "-//W3C//DTD SVG 1.1//EN" "http://www.w3.org/Graphics/SVG/1.1/DTD/svg11.dtd">
<svg version="1.1" id="Layer_1" xmlns="http://www.w3.org/2000/svg" xmlns:xlink="http://www.w3.org/1999/xlink" x="0px" y="0px"
	 width="40px" height="40px" viewBox="0 0 219.696 219.691" enable-background="new 0 0 219.696 219.691"
	 xml:space="preserve">
<circle fill="#42C29E" cx="109.113" cy="109.849" r="109.848"/>
<path fill-rule="evenodd" clip-rule="evenodd" fill="#FFFFFF" d="M66.354,173.259c0-42.27,0-84.539,0-126.809
	c0.034-0.308,0.064-0.616,0.104-0.923c0.29-2.271,1.108-4.329,2.545-6.118c1.892-2.355,4.327-3.825,7.305-4.372
	c0.561-0.103,1.13-0.159,1.695-0.236c20.744,0,41.488,0,62.231,0c0.438,0.056,0.876,0.101,1.311,0.168
	c3.15,0.49,5.729,1.98,7.712,4.472c1.823,2.29,2.614,4.935,2.614,7.843c-0.001,41.604,0,83.208-0.008,124.811
	c0,0.83-0.042,1.67-0.158,2.492c-0.379,2.666-1.555,4.955-3.477,6.832c-2.43,2.373-5.388,3.475-8.767,3.475
	c-20.235,0.002-40.471,0.002-60.706-0.004c-0.56,0-1.123-0.023-1.677-0.092c-2.273-0.275-4.33-1.102-6.119-2.539
	c-2.355-1.895-3.825-4.328-4.37-7.307C66.488,174.392,66.432,173.824,66.354,173.259z M147.75,109.895c0-20.782,0-41.564,0-62.347
	c0-0.273,0.003-0.547-0.014-0.82c-0.177-2.743-1.329-4.974-3.534-6.632c-1.63-1.227-3.489-1.725-5.521-1.724
	c-19.7,0.009-39.401,0.005-59.102,0.005c-0.261,0-0.522,0-0.782,0.014c-1.693,0.087-3.249,0.602-4.618,1.6
	c-2.506,1.829-3.691,4.332-3.691,7.418c0,41.629,0,83.259,0,124.888c0,0.223,0,0.443,0.013,0.664
	c0.171,2.744,1.319,4.977,3.519,6.639c1.627,1.23,3.485,1.736,5.517,1.736c19.714-0.01,39.427-0.006,59.141-0.006
	c0.248,0,0.496,0,0.743-0.012c2.006-0.105,3.787-0.797,5.298-2.119c2.075-1.816,3.032-4.139,3.031-6.881
	C147.749,151.511,147.75,130.703,147.75,109.895z"/>
<path fill-rule="evenodd" clip-rule="evenodd" fill="#FFFFFF" d="M141.848,167.349c-21.836,0-43.639,0-65.465,0
	c0-37.635,0-75.25,0-112.899c21.814,0,43.626,0,65.465,0C141.848,92.069,141.848,129.693,141.848,167.349z M79.686,58.914
	c0,0.203,0,0.366,0,0.529c0,34.301,0,68.603,0,102.904c0,0.531,0.001,0.531,0.466,0.531c19.31,0.001,38.619,0.001,57.929,0
	c0.47,0,0.47,0,0.47-0.568c0-6.247,0-12.493,0-18.74c0-27.986,0-55.972,0-83.957c0-0.228,0-0.457,0-0.699
	C118.909,58.914,99.333,58.914,79.686,58.914z"/>
<path fill-rule="evenodd" clip-rule="evenodd" fill="#FFFFFF" d="M103.803,174.554c-0.005-2.924,2.376-5.318,5.303-5.334
	c2.927-0.014,5.338,2.402,5.329,5.338c-0.008,2.934-2.395,5.318-5.318,5.316C106.194,179.875,103.808,177.486,103.803,174.554z"/>
<path fill-rule="evenodd" clip-rule="evenodd" fill="#FFFFFF" d="M109.16,44.584c2.617,0,5.234-0.005,7.852,0.002
	c1.243,0.003,2.258,0.705,2.624,1.787c0.625,1.85-0.7,3.572-2.763,3.574c-5.169,0.004-10.339,0.001-15.508,0.001
	c-0.052,0-0.104,0.001-0.156-0.001c-1.236-0.044-2.201-0.696-2.581-1.743c-0.636-1.753,0.569-3.544,2.446-3.614
	c0.611-0.023,1.224-0.006,1.836-0.006C104.993,44.583,107.076,44.584,109.16,44.584z"/>
</svg>
