<?xml version="1.0" encoding="utf-8"?>
<!-- Generator: Adobe Illustrator 16.0.2, SVG Export Plug-In . SVG Version: 6.00 Build 0)  -->
<!DOCTYPE svg PUBLIC "-//W3C//DTD SVG 1.1//EN" "http://www.w3.org/Graphics/SVG/1.1/DTD/svg11.dtd">
<svg version="1.1" id="Layer_1" xmlns="http://www.w3.org/2000/svg" xmlns:xlink="http://www.w3.org/1999/xlink" x="0px" y="0px"
	 width="64px" height="64px" viewBox="0 0 219.696 219.691" enable-background="new 0 0 219.696 219.691"
	 xml:space="preserve">
<g>
	<circle fill="#42C29E" cx="109.849" cy="109.845" r="109.849"/>
	<g>
		<g>
			<rect x="56.084" y="89.423" fill-rule="evenodd" clip-rule="evenodd" fill="#FFFFFF" width="10.074" height="45.632"/>
			<rect x="68.33" y="101.869" fill-rule="evenodd" clip-rule="evenodd" fill="#FFFFFF" width="10.074" height="33.187"/>
			<rect x="80.578" y="109.771" fill-rule="evenodd" clip-rule="evenodd" fill="#FFFFFF" width="10.074" height="25.284"/>
			<rect x="92.824" y="116.103" fill-rule="evenodd" clip-rule="evenodd" fill="#FFFFFF" width="10.074" height="18.952"/>
		</g>
		<g>
			<path fill="#FFFFFF" d="M139.787,130.718v8.147c0,3.678-2.988,6.657-6.658,6.657H41.447c-3.67,0-6.658-2.979-6.658-6.657v-53.26
				c0-3.67,2.988-6.658,6.658-6.658h63.371c1.664-2.471,3.645-4.71,5.883-6.657H41.447c-7.34,0-13.314,5.975-13.314,13.315v53.26
				c0,7.348,5.975,13.314,13.314,13.314h91.682c7.34,0,13.314-5.967,13.314-13.314v-10.303
				C144.33,129.511,142.1,130.236,139.787,130.718z"/>
		</g>
		<g>
			<path fill="#FFFFFF" d="M133.014,57.109c-12.623,0-23.916,5.825-31.332,14.938c-1.672,2.055-3.154,4.285-4.402,6.657
				c-2.961,5.609-4.643,12-4.643,18.782c0,22.261,18.117,40.378,40.377,40.378c2.381,0,4.703-0.208,6.975-0.607
				c2.287-0.4,4.518-0.991,6.656-1.765c15.578-5.601,26.748-20.529,26.748-38.006C173.393,75.217,155.275,57.109,133.014,57.109z
				 M146.645,128.32c-2.113,0.948-4.344,1.672-6.656,2.154c-2.256,0.483-4.586,0.732-6.975,0.732
				c-18.59,0-33.721-15.129-33.721-33.72c0-6.949,2.115-13.415,5.727-18.782c1.664-2.472,3.645-4.711,5.883-6.657
				c5.926-5.16,13.656-8.281,22.111-8.281c18.592,0,33.721,15.121,33.721,33.721C166.734,111.226,158.471,123.084,146.645,128.32z"
				/>
		</g>
		<g>
			<rect x="127.076" y="91.991" fill="#FFFFFF" width="11.875" height="28.468"/>
			<circle fill="#FFFFFF" cx="133.014" cy="81.258" r="6.744"/>
		</g>
		
			<rect x="163.52" y="118.331" transform="matrix(0.7683 -0.6401 0.6401 0.7683 -50.2457 142.2281)" fill="#FFFFFF" width="15.654" height="44.383"/>
	</g>
</g>
</svg>
