<?xml version="1.0" encoding="utf-8"?>
<!-- Generator: Adobe Illustrator 16.0.2, SVG Export Plug-In . SVG Version: 6.00 Build 0)  -->
<!DOCTYPE svg PUBLIC "-//W3C//DTD SVG 1.1//EN" "http://www.w3.org/Graphics/SVG/1.1/DTD/svg11.dtd">
<svg version="1.1" id="Layer_1" xmlns="http://www.w3.org/2000/svg" xmlns:xlink="http://www.w3.org/1999/xlink" x="0px" y="0px"
	 width="64px" height="64px" viewBox="0 0 219.696 219.691" enable-background="new 0 0 219.696 219.691"
	 xml:space="preserve">
<g>
	<circle fill="#42C29E" cx="109.848" cy="109.845" r="109.849"/>
	<path fill-rule="evenodd" clip-rule="evenodd" fill="#FFFFFF" d="M75.058,174.761c-1.563-0.902-3.053-1.764-4.617-2.667
		c8.504-14.73,16.99-29.427,25.557-44.266c-11.07,0-21.941,0-32.863,0c0-15.14,0-30.204,0-45.347c2.201,0,4.371,0,6.541,0
		c0.023-0.055,0.047-0.108,0.07-0.162c-5.309-1.719-9.328-4.971-11.764-9.985c-2.432-5.009-2.617-10.177-0.58-15.354
		c3.158-8.028,11.258-12.866,19.805-11.924c8.377,0.922,15.273,7.383,16.66,15.639c0.803,4.77-0.037,9.248-2.596,13.358
		c-2.539,4.085-6.18,6.786-10.736,8.344c11.172,0,22.344,0,33.693,0c-7.035-2.448-11.73-7.025-13.309-14.251
		c-1.58-7.234,0.475-13.52,6.008-18.457c8.275-7.383,21.145-5.989,27.793,2.891c2.537,3.393,3.805,7.231,3.799,11.456
		c-0.006,4.2-1.275,8.015-3.807,11.383c-2.533,3.373-5.867,5.632-9.85,7.031c2.896,0,5.793,0,8.762,0c0,5.684,0,11.297,0,17.098
		c10.088-5.822,20.039-11.566,30.068-17.355c0,15.501,0,30.898,0,46.411c-10.002-5.775-19.941-11.513-30.004-17.324
		c0,5.563,0,11.004,0,16.536c-10.576,0-21.057,0-31.734,0c8.568,14.843,17.049,29.526,25.564,44.276
		c-1.525,0.883-3.033,1.754-4.615,2.67c-6.998-12.122-13.973-24.204-20.947-36.285c-0.051,0.014-0.102,0.029-0.154,0.043
		c0,11.938,0,23.877,0,35.854c-0.244,0.038-0.416,0.085-0.586,0.086c-1.391,0.007-2.779-0.01-4.168,0.014
		c-0.473,0.007-0.678-0.153-0.621-0.629c0.018-0.158,0.002-0.318,0.002-0.479c0-11.501,0-23.002,0-34.503c0-0.258,0-0.515,0-0.773
		c-0.061-0.013-0.119-0.023-0.18-0.036C89.202,150.259,82.155,162.465,75.058,174.761z"/>
</g>
</svg>
