<?xml version="1.0" encoding="utf-8"?>
<!-- Generator: Adobe Illustrator 16.0.2, SVG Export Plug-In . SVG Version: 6.00 Build 0)  -->
<!DOCTYPE svg PUBLIC "-//W3C//DTD SVG 1.1//EN" "http://www.w3.org/Graphics/SVG/1.1/DTD/svg11.dtd">
<svg version="1.1" id="Layer_1" xmlns="http://www.w3.org/2000/svg" xmlns:xlink="http://www.w3.org/1999/xlink" x="0px" y="0px"
	 width="40px" height="40px" viewBox="0 0 219.696 219.691" enable-background="new 0 0 219.696 219.691"
	 xml:space="preserve">
<circle fill="#42C29E" cx="109.849" cy="109.849" r="109.849"/>
<path fill-rule="evenodd" clip-rule="evenodd" fill="#FEFEFE" d="M136.196,101.66c0.125,7.924-0.673,15.872,0.5,23.77
	c0.496,3.34,2.048,6.008,5.581,6.763c3.548,0.758,6.582-0.321,8.818-3.292c3.187-4.234,4.086-9.235,4.668-14.307
	c1.187-10.328,0.856-20.587-2.862-30.402c-5.688-15.013-17.062-23.436-32.582-25.891c-16.852-2.666-31.872,1.702-44.09,13.997
	c-7.012,7.057-10.378,15.973-11.941,25.63c-0.356,2.208-0.892,4.429-0.561,6.707c0.38,3.721,0.368,7.442,0.009,11.165
	c0.88,23.077,15.581,42.683,40.115,45.987c9.709,1.308,19.35,1.033,28.847-1.583c1.706-0.47,2.653-0.211,2.371,1.841
	c-0.106,0.771-0.017,1.567-0.017,2.354c0,7.404,0.063,7.875-7.255,8.843c-19.877,2.629-39.004,0.813-55.593-11.92
	c-12.515-9.605-19.229-22.654-21.507-38.108c-1.865-12.661-1.41-25.158,2.79-37.371c5.984-17.403,17.775-29.436,34.781-35.901
	c14.902-5.665,30.33-6.129,45.452-0.678c18.25,6.58,29.503,19.854,34.084,38.536c2.954,12.042,3.189,24.297-0.517,36.279
	c-2.888,9.331-8.196,16.888-18.337,19.264c-10.817,2.535-19.711-0.082-23.853-12.044c-1.054-0.025-0.81,0.967-1.041,1.475
	c-3.055,6.71-8.389,10.24-15.579,10.828c-12.773,1.044-22.548-5.114-26.393-17.346c-3.526-11.22-3.464-22.577,1.653-33.494
	c4.938-10.538,19.854-16.281,30.662-11.928c3.672,1.479,6.364,4.056,8.404,7.413c0.171-0.207,0.36-0.328,0.362-0.453
	c0.127-6.771,0.126-6.777,6.878-6.767c1.962,0.003,3.924,0.053,5.886,0.082c0.146,0.13,0.412,0.262,0.412,0.395
	C136.343,88.22,136.652,94.943,136.196,101.66z"/>
<path fill-rule="evenodd" clip-rule="evenodd" fill="#42C29E" d="M93.046,111.421c-0.238-4.228,0.289-8.564,1.813-12.777
	c2.191-6.053,6.442-9.333,12.414-9.489c6.166-0.161,10.441,2.607,12.876,8.743c3.255,8.198,3.452,16.668,1.057,25.066
	c-2.182,7.648-7.863,11.604-14.935,11.062c-6.765-0.519-11.282-5.363-12.61-13.313C93.159,117.697,92.948,114.688,93.046,111.421z"
	/>
</svg>
