<?xml version="1.0" encoding="utf-8"?>
<!-- Generator: Adobe Illustrator 16.0.2, SVG Export Plug-In . SVG Version: 6.00 Build 0)  -->
<!DOCTYPE svg PUBLIC "-//W3C//DTD SVG 1.1//EN" "http://www.w3.org/Graphics/SVG/1.1/DTD/svg11.dtd">
<svg version="1.1" id="Layer_1" xmlns="http://www.w3.org/2000/svg" xmlns:xlink="http://www.w3.org/1999/xlink" x="0px" y="0px"
	 width="1340px" height="1048px" viewBox="0 0 1340 1048" enable-background="new 0 0 1340 1048" xml:space="preserve">
<g>
	<path fill-rule="evenodd" clip-rule="evenodd" fill="#FFFFFF" d="M1210.854,65c3.637,0.934,7.234,2.065,10.914,2.771
		c39.887,7.652,68.982,38.861,75.323,79.015c8.559,54.203-33.234,109.958-98.483,107.913c-44.538-1.395-82.591-38.165-89.018-82.263
		c-5.987-41.083,20.459-97.444,81.586-106.392c1.251-0.184,2.454-0.688,3.68-1.044C1200.188,65,1205.521,65,1210.854,65z
		 M1114.382,159.553c-1.046,47.252,38.993,88.414,87.136,89.583c48.278,1.172,90.293-38.052,91.321-85.255
		c1.107-50.812-37.273-91.864-86.983-93.038C1156.123,69.668,1115.498,109.065,1114.382,159.553z"/>
	<path fill-rule="evenodd" clip-rule="evenodd" fill="#FFFFFF" d="M418.476,501.988c11.987,12.539,23.591,24.923,35.468,37.04
		c15.863,16.184,31.926,32.173,47.926,48.221c29.768,29.854,59.574,59.671,89.254,89.612c1.183,1.193,2.279,4.343,1.634,5.142
		c-2.158,2.669-3.909,0.304-5.576-1.368c-54.85-54.97-109.713-109.925-164.58-164.877c-2.572-2.576-5.199-5.096-8.192-8.027
		c-4.345,6.068-8.675,12.093-12.985,18.133c-50.692,71.033-101.377,142.07-152.088,213.089c-1.328,1.858-2.394,5.347-5.448,2.717
		c-0.781-0.673-0.039-4.265,1.038-5.779c46.615-65.557,93.347-131.028,140.062-196.514c8.6-12.055,17.182-24.121,25.787-36.202
		c-25.938-25.827-51.753-51.519-77.553-77.227c-4.957-4.938-9.841-9.952-14.784-14.904c-42.264-42.34-84.549-84.659-126.75-127.06
		c-1.922-1.932-3.111-4.59-4.641-6.91c0.545-0.602,1.091-1.202,1.637-1.804c1.628,0.895,3.553,1.485,4.834,2.735
		c6.32,6.167,12.443,12.533,18.683,18.783c51.916,52.011,103.804,104.051,155.791,155.992c15.201,15.188,30.689,30.09,46.217,45.292
		c0.464-0.597,1.501-1.837,2.437-3.148c25.548-35.773,51.078-71.56,76.653-107.312c0.925-1.293,2.143-2.546,3.515-3.266
		c0.537-0.282,2.631,0.888,2.686,1.514c0.115,1.311-0.332,2.926-1.105,4.023c-9.018,12.794-18.143,25.515-27.236,38.258
		C453.266,453.216,435.377,478.295,418.476,501.988z"/>
	<path fill-rule="evenodd" clip-rule="evenodd" fill="#FFFFFF" d="M136.291,284.14c-58.208,0.472-98.098-48.374-95.372-98.135
		c2.955-53.92,43.209-91.101,97.537-91.125c50.519-0.022,91.734,44.108,91.52,97.534
		C229.777,242.098,186.647,284.325,136.291,284.14z M135.134,278.805c49.138,0.022,89.663-40.254,89.675-89.123
		c0.011-48.852-40.827-89.611-89.52-89.348c-48.942,0.264-89.107,40.459-89.123,89.193
		C46.151,238.347,86.446,278.784,135.134,278.805z"/>
	<path fill-rule="evenodd" clip-rule="evenodd" fill="#FFFFFF" d="M1093.373,427.711c-0.32,52.851-42.665,95.009-95.15,94.735
		c-52.266-0.272-94.562-42.898-94.331-95.067c0.233-52.873,43.241-94.583,97.18-94.249
		C1051.189,333.441,1093.681,376.981,1093.373,427.711z M909.4,427.167c-0.438,47.589,39.395,88.779,85.863,89.896
		c49.979,1.202,91.746-38.103,92.52-87.133c0.777-49.25-38.52-89.919-85.742-91.325C953.689,337.165,909.985,375.456,909.4,427.167z
		"/>
	<path fill-rule="evenodd" clip-rule="evenodd" fill="#FFFFFF" d="M1213.221,915.748c-0.418,52.938-43.21,94.599-96.688,94.134
		c-51.658-0.45-93.396-43.878-92.563-97.167c0.82-52.434,46.098-93.716,98.096-92.205
		C1171.636,821.951,1213.622,864.854,1213.221,915.748z M1118.719,1004.376c48.771,0.036,88.947-40.11,89.132-89.067
		c0.185-48.754-40.325-89.236-89.462-89.402c-48.489-0.164-88.977,40.433-89.006,89.247
		C1029.353,964.358,1069.385,1004.34,1118.719,1004.376z"/>
	<path fill-rule="evenodd" clip-rule="evenodd" fill="#FFFFFF" d="M483.438,324.562c0.003-52.171,42.374-94.703,94.223-94.581
		c53.002,0.125,94.803,42.273,94.766,95.551c-0.036,52.141-42.354,93.62-95.484,93.59
		C525.24,419.094,483.435,376.817,483.438,324.562z M667.083,324.357c0.019-48.966-40.329-88.928-89.728-88.871
		c-48.674,0.057-88.575,40.366-88.575,89.481c0.001,48.653,40.08,88.783,88.709,88.821
		C627.145,413.827,667.066,373.979,667.083,324.357z"/>
	<path fill-rule="evenodd" clip-rule="evenodd" fill="#FFFFFF" d="M292.136,832.174c-0.002,52.141-42.543,94.602-94.732,94.555
		c-52.199-0.049-94.447-42.784-94.412-95.501c0.035-51.514,43.598-94.739,94.857-94.123
		C250.435,737.737,292.138,779.786,292.136,832.174z M197.312,921.057c49.087,0.005,89.498-39.897,89.652-88.525
		c0.156-49.092-40.159-89.751-89.02-89.779c-49.298-0.028-89.442,39.977-89.446,89.135
		C108.494,880.973,148.413,921.051,197.312,921.057z"/>
	<path fill-rule="evenodd" clip-rule="evenodd" fill="#FFFFFF" d="M1194.969,262.609c0.279,2.089,0.973,4.218,0.773,6.261
		c-2.036,20.869-4.21,41.726-6.359,62.586c-2.833,27.48-5.685,54.96-8.517,82.441c-3.225,31.285-6.447,62.57-9.65,93.857
		c-3.136,30.63-6.23,61.264-9.369,91.893c-3.172,30.96-6.386,61.917-9.565,92.876c-3.146,30.627-6.268,61.258-9.41,91.886
		c-0.935,9.106-1.788,18.224-2.973,27.298c-0.198,1.52-1.905,2.844-2.914,4.258c-0.768-1.553-2.313-3.174-2.184-4.646
		c1.361-15.418,2.974-30.813,4.552-46.211c3.494-34.106,7.003-68.212,10.515-102.316c3.204-31.125,6.438-62.246,9.627-93.372
		c3.154-30.794,6.252-61.594,9.403-92.389c3.458-33.776,6.949-67.549,10.423-101.324c3.184-30.96,6.351-61.922,9.548-92.881
		c0.547-5.296,1.088-10.598,1.882-15.859c0.242-1.604,1.324-3.08,2.021-4.615C1193.504,262.437,1194.236,262.523,1194.969,262.609z"
		/>
	<path fill-rule="evenodd" clip-rule="evenodd" fill="#FFFFFF" d="M683.602,634.406c54.063,2.143,93.997,44.796,92.138,98.406
		c-1.797,51.771-46.03,92.191-98.5,90.007c-52.349-2.18-92.398-46.124-90.133-98.899C589.284,673.195,633.25,632.41,683.602,634.406
		z M681.284,817.905c49.711,0.003,89.592-39.779,89.624-89.405c0.032-49.463-40.025-89.386-89.705-89.405
		c-48.924-0.019-89.147,40.303-89.272,89.49C591.807,777.523,632.2,817.902,681.284,817.905z"/>
	<path fill-rule="evenodd" clip-rule="evenodd" fill="#FFFFFF" d="M1103.419,174.378c-1.657,1.188-3.153,3.004-4.993,3.474
		c-91.835,23.436-183.7,46.752-275.561,70.089c-47.863,12.161-95.724,24.334-143.585,36.502c-0.645,0.164-1.283,0.353-1.933,0.5
		c-2.355,0.535-5.27,1.98-6.104-1.533c-0.199-0.837,2.707-3.138,4.49-3.609c20.419-5.386,40.892-10.566,61.359-15.768
		c118.932-30.221,237.864-60.438,356.81-90.611c2.815-0.714,5.771-0.883,8.661-1.307
		C1102.85,172.87,1103.134,173.624,1103.419,174.378z"/>
	<path fill-rule="evenodd" clip-rule="evenodd" fill="#FFFFFF" d="M1080.089,821.45c-0.836-1.964-2.081-3.854-2.445-5.901
		c-4.987-27.995-9.884-56.005-14.743-84.021c-10.914-62.917-21.797-125.84-32.688-188.762c-0.794-4.59-1.805-9.162-2.214-13.787
		c-0.173-1.961,0.949-4.037,1.482-6.061c1.235,1.646,3.229,3.145,3.585,4.961c2.453,12.565,4.599,25.191,6.783,37.808
		c9.191,53.094,18.356,106.191,27.539,159.287c5.103,29.497,10.248,58.985,15.274,88.495c0.41,2.412,0.054,4.954,0.054,7.437
		C1081.84,821.088,1080.965,821.269,1080.089,821.45z"/>
	<path fill-rule="evenodd" clip-rule="evenodd" fill="#FFFFFF" d="M580.343,745.672c0.711,0.661,1.667,1.549,2.622,2.437
		c-1.02,1.073-1.875,2.811-3.086,3.112c-8.874,2.207-17.817,4.139-26.744,6.133c-83.104,18.56-166.209,37.113-249.316,55.664
		c-2.323,0.519-5.342,2.188-6.067-1.45c-0.18-0.903,3.261-3.295,5.32-3.763c47.196-10.726,94.428-21.299,141.663-31.855
		c43.826-9.794,87.663-19.533,131.495-29.299C577.362,746.398,578.489,746.114,580.343,745.672z"/>
	<path fill-rule="evenodd" clip-rule="evenodd" fill="#FFFFFF" d="M764.618,785.419c2.428,0.552,4.986,0.778,7.264,1.7
		c69.205,28.043,138.384,56.152,207.567,84.252c11.863,4.817,23.729,9.63,35.593,14.448c0.771,0.313,1.758,0.453,2.25,1.018
		c1.17,1.34,2.103,2.887,3.132,4.351c-1.742,0.227-3.76,1.144-5.187,0.575c-22.093-8.805-44.108-17.804-66.144-26.755
		c-59.936-24.345-119.879-48.674-179.783-73.097c-2.163-0.882-3.953-2.677-5.917-4.046
		C763.802,787.05,764.21,786.234,764.618,785.419z"/>
	<path fill-rule="evenodd" clip-rule="evenodd" fill="#FFFFFF" d="M482.328,291.72c-2.292-0.258-4.679-0.188-6.863-0.82
		c-50.937-14.729-101.856-29.523-152.772-44.329c-27.932-8.121-55.853-16.282-83.779-24.426c-0.956-0.279-2.178-0.305-2.799-0.925
		c-1.137-1.135-1.917-2.627-2.846-3.968c1.473-0.388,3.114-1.404,4.392-1.063c9.313,2.497,18.556,5.253,27.815,7.95
		c70.538,20.542,141.077,41.078,211.594,61.694c2.218,0.648,4.187,2.153,6.272,3.258
		C483.005,289.968,482.666,290.844,482.328,291.72z"/>
	<path fill-rule="evenodd" clip-rule="evenodd" fill="#FFFFFF" d="M932.781,504.529c-1.212,2.002-2.072,4.362-3.689,5.953
		c-19,18.682-38.09,37.273-57.202,55.841c-24.483,23.788-49.015,47.527-73.515,71.299c-9.682,9.393-19.323,18.827-29.011,28.216
		c-1.311,1.271-2.664,2.587-4.23,3.468c-0.769,0.432-2.423,0.288-3.03-0.283c-0.569-0.535-0.709-2.207-0.291-2.969
		c0.78-1.421,2.022-2.627,3.21-3.78c26.995-26.223,54.013-52.423,81.018-78.637c26.646-25.866,53.27-51.758,79.965-77.572
		c1.391-1.345,3.376-2.075,5.085-3.09C931.653,503.492,932.218,504.01,932.781,504.529z"/>
	<path fill-rule="evenodd" clip-rule="evenodd" fill="#FFFFFF" d="M895.267,409.3c-14.183-3.287-27.472-6.346-40.75-9.446
		c-58.132-13.575-116.261-27.163-174.391-40.74c-0.485-0.114-1.127,0.001-1.454-0.276c-1.493-1.262-2.899-2.626-4.336-3.954
		c1.846-0.479,3.854-1.692,5.513-1.326c17.05,3.764,34.046,7.774,51.052,11.736c54.092,12.6,108.182,25.209,162.271,37.817
		c0.811,0.188,1.885,0.154,2.364,0.667c0.975,1.042,2.105,2.345,2.213,3.623C897.806,408.064,895.822,408.902,895.267,409.3z"/>
	<path fill-rule="evenodd" clip-rule="evenodd" fill="#FFFFFF" d="M597.091,423.411c0.688,1.301,1.806,2.782,2.301,4.449
		c6.822,22.947,13.572,45.916,20.31,68.888c12.305,41.947,24.622,83.892,36.806,125.874c0.694,2.393,3.501,6.171-0.28,7.406
		c-3.964,1.297-4.242-3.236-5.033-5.929c-19.08-64.908-38.111-129.831-57.127-194.759
		C593.397,427.048,591.956,424.32,597.091,423.411z"/>
	<path fill-rule="evenodd" clip-rule="evenodd" fill="#FFFFFF" d="M1145.839,241.5c-1.913,2.767-2.955,4.46-4.176,6.013
		c-22.301,28.371-44.624,56.723-66.942,85.08c-3.496,4.443-6.849,9.015-10.585,13.246c-1.148,1.301-4.082,2.805-4.941,2.255
		c-2.976-1.907-0.55-4.007,0.81-5.737c19.615-24.98,39.27-49.929,58.91-74.891c6.067-7.711,12.1-15.449,18.195-23.137
		c1.022-1.289,2.097-2.857,3.499-3.424C1141.813,240.417,1143.52,241.176,1145.839,241.5z"/>
	<path fill-rule="evenodd" clip-rule="evenodd" fill="#FFFFFF" d="M1185.699,132.275c-0.112,1.715-0.313,3.431-0.32,5.146
		c-0.034,8.159,0.003,16.319-0.03,24.479c-0.008,1.826-0.189,3.652-0.304,5.477c-0.212,3.379-2.127,5.325-5.393,5.326
		c-3.285,0-5.419-2.075-5.427-5.343c-0.034-13.806-0.428-27.649,0.438-41.406c0.564-8.941,6.365-13.556,15.382-13.91
		c8.81-0.346,17.65-0.362,26.465-0.092c10.277,0.314,16.479,6.385,16.748,16.653c0.323,12.313,0.112,24.643,0.068,36.966
		c-0.014,3.823-1.037,7.189-5.713,7.172c-4.472-0.017-5.429-3.538-5.507-6.951c-0.211-9.321-0.084-18.649-0.092-27.975
		c0-1.804,0-3.609,0-5.414c-0.445-0.051-0.89-0.101-1.336-0.151c-0.275,1.752-0.789,3.504-0.792,5.255
		c-0.05,29.143-0.025,58.285-0.056,87.427c-0.003,1.981-0.031,4.034-0.526,5.927c-0.916,3.505-3.478,5.18-7.067,5.083
		c-3.803-0.104-6.34-2.047-7.057-5.802c-0.401-2.102-0.312-4.312-0.315-6.473c-0.022-15.153-0.012-30.308-0.012-45.461
		c0-1.719,0-3.437,0-5.155c-0.563-0.05-1.127-0.1-1.69-0.148c-0.157,1.582-0.449,3.163-0.453,4.745
		c-0.034,15.82,0.002,31.641-0.049,47.46c-0.007,1.973-0.138,4.018-0.669,5.9c-1.068,3.783-4.188,5.798-7.61,4.69
		c-2.521-0.817-4.771-3.501-6.324-5.887c-0.935-1.433-0.359-3.888-0.36-5.883c-0.014-28.643-0.009-57.285-0.009-85.928
		c0-1.884,0-3.769,0-5.654C1187.026,132.324,1186.362,132.3,1185.699,132.275z"/>
	<path fill-rule="evenodd" clip-rule="evenodd" fill="#FFFFFF" d="M1203.385,109.156c-7.012-0.153-12.654-6.093-12.34-12.991
		c0.317-6.994,6.22-12.5,13.155-12.273c6.972,0.229,12.669,6.256,12.358,13.075C1216.238,103.999,1210.496,109.311,1203.385,109.156
		z"/>
	<path fill-rule="evenodd" clip-rule="evenodd" fill="#FFFFFF" d="M134.784,203.221c-0.209,2.177-0.593,4.352-0.6,6.53
		c-0.053,15.829-0.047,31.658-0.021,47.487c0.007,4.36-1.477,7.51-6.232,8.146c-5.124,0.686-8.357-2.247-8.413-7.919
		c-0.104-10.663-0.034-21.327-0.035-31.991c-0.001-18.662,0.017-37.324-0.023-55.984c-0.005-2.259-0.325-4.517-0.499-6.775
		c-0.436-0.032-0.873-0.064-1.31-0.097c-0.221,1.433-0.623,2.865-0.632,4.299c-0.058,9.331-0.06,18.662-0.015,27.992
		c0.017,3.594-0.304,6.898-4.979,7.042c-4.526,0.139-6.187-2.59-6.177-6.676c0.03-12.995-0.098-25.995,0.235-38.982
		c0.215-8.379,5.976-14.147,14.301-14.375c10.143-0.277,20.307-0.213,30.448,0.111c7.881,0.252,13.748,6.256,13.915,14.22
		c0.279,13.324,0.182,26.655,0.226,39.983c0.013,3.739-1.656,6.18-5.608,6.1c-3.986-0.08-5.384-2.709-5.382-6.367
		c0.007-9.665,0.02-19.329-0.017-28.992c-0.006-1.659-0.247-3.317-0.379-4.976c-0.49,0.012-0.979,0.022-1.469,0.034
		c-0.099,1.834-0.284,3.669-0.286,5.504c-0.018,28.658,0.003,57.318-0.043,85.977c-0.004,2.309-0.252,4.657-0.726,6.917
		c-0.777,3.708-3.516,5.04-7.032,5.021c-3.569-0.019-6.154-1.639-6.976-5.205c-0.48-2.083-0.546-4.293-0.553-6.447
		c-0.043-15.163-0.014-30.325-0.038-45.487c-0.002-1.679-0.195-3.358-0.3-5.037C135.706,203.255,135.245,203.238,134.784,203.221z"
		/>
	<path fill-rule="evenodd" clip-rule="evenodd" fill="#FFFFFF" d="M135.503,113.576c7.13,0.006,12.635,5.514,12.643,12.649
		c0.007,7.032-5.612,12.717-12.604,12.75c-6.9,0.033-12.694-5.764-12.703-12.709C122.831,119.249,128.498,113.57,135.503,113.576z"
		/>
	<path fill-rule="evenodd" clip-rule="evenodd" fill="#FFFFFF" d="M997.716,441.353c0,5.471,0,10.941,0,16.412
		c0,11.666,0.023,23.33-0.024,34.995c-0.008,1.814-0.182,3.662-0.559,5.434c-0.871,4.099-3.712,5.825-7.687,5.521
		c-4.047-0.311-6.458-2.707-6.641-6.77c-0.216-4.824-0.089-9.663-0.089-14.495c-0.005-25.663-0.002-51.326-0.003-76.989
		c0-1.752,0-3.506,0-5.259c-0.542-0.092-1.084-0.184-1.626-0.275c-0.346,1.471-0.977,2.939-0.99,4.413
		c-0.092,9.665-0.082,19.331-0.033,28.995c0.02,3.935-0.857,7.152-5.625,7.057c-4.395-0.087-5.425-3.105-5.393-6.847
		c0.107-12.822-0.151-25.661,0.416-38.463c0.447-10.107,6.439-15.2,16.596-15.275c8.498-0.063,16.998-0.096,25.495,0.01
		c10.098,0.126,16.199,6.042,16.436,16.145c0.275,11.822,0.291,23.65,0.369,35.477c0.011,1.656,0.268,3.663-0.536,4.887
		c-1.139,1.737-3.099,3.923-4.812,4.016c-1.713,0.092-3.923-1.86-5.209-3.478c-0.879-1.104-0.72-3.171-0.73-4.81
		c-0.061-8.998-0.011-17.997-0.047-26.996c-0.006-1.681-0.231-3.361-0.356-5.041c-0.485-0.005-0.97-0.009-1.455-0.014
		c-0.111,1.651-0.319,3.302-0.32,4.954c-0.021,28.829-0.015,57.658-0.016,86.487c0,1.333,0.05,2.67-0.023,3.999
		c-0.298,5.408-2.836,8.268-7.335,8.325c-4.73,0.06-7.594-2.99-7.615-8.483c-0.063-16.164-0.007-32.328-0.045-48.493
		c-0.005-1.85-0.309-3.698-0.474-5.547C998.829,441.282,998.272,441.317,997.716,441.353z"/>
	<path fill-rule="evenodd" clip-rule="evenodd" fill="#FFFFFF" d="M1011.371,364.54c-0.121,7.104-5.768,12.655-12.784,12.568
		c-6.986-0.088-12.645-5.886-12.537-12.847c0.108-7.05,5.746-12.523,12.834-12.458
		C1006.057,351.866,1011.492,357.413,1011.371,364.54z"/>
	<path fill-rule="evenodd" clip-rule="evenodd" fill="#FFFFFF" d="M1134.699,888.727c0,2.604,0,5.207,0,7.81
		c0,28.494,0.018,56.987-0.015,85.479c-0.007,6.298-2.314,8.992-7.443,9.027c-4.948,0.034-7.345-2.644-7.36-8.513
		c-0.043-15.996,0.007-31.993-0.045-47.987c-0.007-1.978-0.411-3.953-0.631-5.929c-0.501,0.044-1.002,0.089-1.504,0.134
		c0,1.554,0.009,3.108-0.001,4.662c-0.108,15.989-0.21,31.979-0.345,47.967c-0.013,1.489-0.054,3.021-0.402,4.457
		c-0.93,3.822-3.633,5.436-7.405,5.278c-3.839-0.161-6.379-2.138-6.691-6.048c-0.371-4.64-0.468-9.313-0.476-13.971
		c-0.042-25.827-0.014-51.654-0.035-77.48c-0.001-1.841-0.212-3.682-0.326-5.522c-0.495-0.017-0.991-0.033-1.486-0.05
		c-0.166,1.651-0.468,3.302-0.477,4.953c-0.047,9.164-0.034,18.328-0.019,27.492c0.006,3.76-0.42,7.206-5.306,7.382
		c-3.937,0.142-5.818-2.159-5.832-7.535c-0.035-12.161-0.102-24.328,0.176-36.485c0.236-10.357,5.179-15.909,15.527-16.451
		c9.949-0.521,19.979-0.233,29.937,0.338c7.387,0.424,13.028,6.286,13.254,13.878c0.404,13.639,0.194,27.296,0.148,40.945
		c-0.011,3.313-1.713,5.278-5.245,5.332c-4.212,0.063-5.552-2.678-5.61-6.148c-0.146-8.829-0.036-17.661-0.075-26.492
		c-0.01-2.207-0.197-4.413-0.303-6.62C1136.039,888.661,1135.369,888.694,1134.699,888.727z"/>
	<path fill-rule="evenodd" clip-rule="evenodd" fill="#FFFFFF" d="M1131.346,851.617c0.097,7.026-5.387,12.676-12.495,12.873
		c-6.977,0.192-12.827-5.424-12.934-12.416c-0.105-6.978,5.53-12.834,12.482-12.975
		C1125.29,838.961,1131.251,844.724,1131.346,851.617z"/>
	<path fill-rule="evenodd" clip-rule="evenodd" fill="#FFFFFF" d="M594.473,298.45c-0.125,1.852-0.356,3.703-0.358,5.553
		c-0.023,27.985-0.014,55.969-0.021,83.953c-0.001,1.831,0.028,3.672-0.151,5.49c-0.456,4.601-3.213,7.327-7.257,7.332
		c-4.327,0.006-7.317-2.903-7.546-7.634c-0.169-3.49-0.041-6.994-0.042-10.492c-0.001-13.326,0.01-26.652-0.013-39.977
		c-0.003-1.687-0.174-3.372-0.267-5.057c-0.5-0.027-0.999-0.054-1.498-0.081c-0.184,1.796-0.521,3.59-0.526,5.386
		c-0.042,16.323,0.154,32.651-0.203,48.968c-0.06,2.711-1.861,6.126-3.977,7.8c-1.493,1.181-5.798,0.932-7.199-0.406
		c-1.962-1.875-3.315-5.348-3.336-8.15c-0.23-29.481-0.138-58.965-0.153-88.448c-0.001-1.862-0.157-3.723-0.242-5.585
		c-0.474-0.021-0.948-0.042-1.422-0.063c-0.163,1.296-0.459,2.591-0.466,3.887c-0.042,8.495,0.026,16.991-0.055,25.485
		c-0.021,2.315,0.135,4.907-0.833,6.854c-0.86,1.732-3.246,3.898-4.809,3.786c-1.894-0.137-4.06-2.166-5.292-3.942
		c-0.911-1.316-0.669-3.536-0.678-5.354c-0.052-10.494-0.13-20.989,0.002-31.482c0.172-13.788,5.812-19.354,19.499-19.456
		c7.484-0.055,14.971-0.06,22.454,0.004c10.705,0.09,17.055,5.926,17.277,16.451c0.264,12.487,0.074,24.984,0.064,37.477
		c-0.002,3.518-1.043,6.431-5.139,6.61c-4.362,0.191-5.764-2.72-5.8-6.477c-0.083-8.827-0.024-17.656-0.078-26.484
		c-0.013-1.965-0.254-3.931-0.39-5.896C595.502,298.483,594.987,298.467,594.473,298.45z"/>
	<path fill-rule="evenodd" clip-rule="evenodd" fill="#FFFFFF" d="M578.202,248.813c7.095,0.067,12.72,5.76,12.54,12.69
		c-0.184,7.067-5.854,12.531-12.928,12.458c-7.085-0.072-12.447-5.639-12.375-12.847
		C565.511,253.873,570.833,248.744,578.202,248.813z"/>
	<path fill-rule="evenodd" clip-rule="evenodd" fill="#FFFFFF" d="M179.439,804.253c-0.096,1.712-0.271,3.424-0.276,5.136
		c-0.029,9.328-0.042,18.657-0.004,27.986c0.016,3.907-0.927,7.251-5.545,7.269c-4.623,0.018-5.62-3.378-5.624-7.239
		c-0.01-12.162-0.125-24.324,0.032-36.482c0.135-10.472,6.328-16.704,16.892-16.973c8.653-0.22,17.32-0.174,25.976,0.002
		c9.097,0.185,15.732,6.146,16.03,15.178c0.433,13.146,0.22,26.316,0.153,39.475c-0.019,3.554-1.616,6.347-5.638,6.149
		c-3.914-0.19-5.283-2.961-5.286-6.566c-0.006-9.662,0.011-19.325-0.024-28.986c-0.006-1.7-0.219-3.399-0.336-5.1
		c-0.498-0.027-0.995-0.055-1.492-0.083c-0.161,1.769-0.461,3.536-0.462,5.305c-0.029,29.153-0.012,58.306-0.042,87.459
		c-0.002,1.98-0.095,4.006-0.509,5.933c-0.783,3.65-3.423,5.153-6.961,5.154c-3.798,0.001-6.384-1.832-7.191-5.602
		c-0.378-1.766-0.305-3.646-0.307-5.474c-0.021-15.492-0.012-30.985-0.012-46.479c0-1.725,0-3.45,0-5.176
		c-0.553-0.055-1.105-0.11-1.657-0.165c-0.223,1.735-0.633,3.471-0.639,5.206c-0.051,15.492-0.015,30.985-0.048,46.479
		c-0.004,1.989-0.031,4.027-0.442,5.958c-0.771,3.616-3.375,5.187-6.912,5.253c-3.562,0.066-6.223-1.502-7.069-5.052
		c-0.532-2.232-0.544-4.623-0.546-6.942c-0.033-28.653-0.022-57.307-0.022-85.961c0-1.897,0-3.796,0-5.694
		C180.797,804.23,180.118,804.242,179.439,804.253z"/>
	<path fill-rule="evenodd" clip-rule="evenodd" fill="#FFFFFF" d="M210.434,768.425c0.072,7.053-5.477,12.675-12.605,12.772
		c-7.03,0.096-12.788-5.503-12.843-12.487c-0.056-7.058,5.51-12.726,12.564-12.793C204.603,755.851,210.362,761.442,210.434,768.425
		z"/>
	<path fill-rule="evenodd" clip-rule="evenodd" fill="#FFFFFF" d="M697.839,700.831c-0.251,2.292-0.717,4.583-0.721,6.874
		c-0.05,29.329-0.019,58.657-0.047,87.985c-0.006,5.985-1.966,8.313-6.765,8.377c-4.863,0.063-7.299-2.354-7.354-7.953
		c-0.155-15.995-0.125-31.991-0.226-47.987c-0.014-2.049-0.371-4.096-0.568-6.145c-0.451-0.003-0.901-0.005-1.352-0.007
		c-0.24,1.86-0.677,3.719-0.689,5.58c-0.109,16.162-0.119,32.325-0.212,48.487c-0.031,5.42-2.149,7.838-6.735,8.024
		c-4.465,0.181-6.875-2.001-7.313-6.378c-0.148-1.486-0.101-2.996-0.101-4.494c-0.004-29.495,0.002-58.99-0.011-88.485
		c-0.001-1.234-0.168-2.47-0.258-3.704c-0.484-0.082-0.97-0.164-1.454-0.246c-0.37,1.86-1.037,3.716-1.062,5.581
		c-0.115,8.663-0.01,17.329-0.087,25.994c-0.016,1.799,0.014,3.895-0.858,5.31c-0.907,1.471-2.931,3.217-4.376,3.141
		c-1.718-0.091-3.726-1.702-4.876-3.211c-0.875-1.147-0.811-3.164-0.819-4.796c-0.061-11.331-0.12-22.664-0.007-33.993
		c0.117-11.783,6.035-17.653,17.96-17.842c8.326-0.132,16.658-0.139,24.984,0.016c9.241,0.171,15.709,6.6,15.818,15.831
		c0.148,12.492,0.041,24.989,0.035,37.483c-0.001,3.709-0.968,6.823-5.448,6.729c-4.314-0.093-4.848-3.293-4.887-6.697
		c-0.108-9.326-0.212-18.651-0.341-27.978c-0.023-1.75-0.155-3.499-0.237-5.248C699.169,700.996,698.505,700.914,697.839,700.831z"
		/>
	<path fill-rule="evenodd" clip-rule="evenodd" fill="#FFFFFF" d="M681.504,652.929c6.977-0.022,12.364,5.265,12.398,12.164
		c0.032,6.754-5.503,12.517-12.151,12.65c-6.682,0.135-12.793-5.917-12.783-12.659C668.977,658.431,674.629,652.95,681.504,652.929z
		"/>
</g>
</svg>
